<?xml version="1.0" encoding="utf-8" standalone="no"?>
<!DOCTYPE svg PUBLIC "-//W3C//DTD SVG 1.1//EN"
  "http://www.w3.org/Graphics/SVG/1.1/DTD/svg11.dtd">
<!-- Created with matplotlib (http://matplotlib.org/) -->
<svg height="1152pt" version="1.1" viewBox="0 0 1584 1152" width="1584pt" xmlns="http://www.w3.org/2000/svg" xmlns:xlink="http://www.w3.org/1999/xlink">
 <defs>
  <style type="text/css">
*{stroke-linecap:butt;stroke-linejoin:round;}
  </style>
 </defs>
 <g id="figure_1">
  <g id="patch_1">
   <path d="M 0 1152 
L 1584 1152 
L 1584 0 
L 0 0 
z
" style="fill:#ffffff;"/>
  </g>
  <g id="axes_1">
   <g id="patch_2">
    <path d="M 198 1025.28 
L 1425.6 1025.28 
L 1425.6 138.24 
L 198 138.24 
z
" style="fill:#ffffff;"/>
   </g>
   <g id="matplotlib.axis_1">
    <g id="xtick_1">
     <g id="line2d_1">
      <defs>
       <path d="M 0 0 
L 0 3.5 
" id="mb8a2f1b7d9" style="stroke:#000000;stroke-width:0.8;"/>
      </defs>
      <g>
       <use style="stroke:#000000;stroke-width:0.8;" x="198" xlink:href="#mb8a2f1b7d9" y="1025.28"/>
      </g>
     </g>
     <g id="text_1">
      <!-- 0.0 -->
      <defs>
       <path d="M 31.78125 66.40625 
Q 24.171875 66.40625 20.328125 58.90625 
Q 16.5 51.421875 16.5 36.375 
Q 16.5 21.390625 20.328125 13.890625 
Q 24.171875 6.390625 31.78125 6.390625 
Q 39.453125 6.390625 43.28125 13.890625 
Q 47.125 21.390625 47.125 36.375 
Q 47.125 51.421875 43.28125 58.90625 
Q 39.453125 66.40625 31.78125 66.40625 
z
M 31.78125 74.21875 
Q 44.046875 74.21875 50.515625 64.515625 
Q 56.984375 54.828125 56.984375 36.375 
Q 56.984375 17.96875 50.515625 8.265625 
Q 44.046875 -1.421875 31.78125 -1.421875 
Q 19.53125 -1.421875 13.0625 8.265625 
Q 6.59375 17.96875 6.59375 36.375 
Q 6.59375 54.828125 13.0625 64.515625 
Q 19.53125 74.21875 31.78125 74.21875 
z
" id="DejaVuSans-30"/>
       <path d="M 10.6875 12.40625 
L 21 12.40625 
L 21 0 
L 10.6875 0 
z
" id="DejaVuSans-2e"/>
      </defs>
      <g transform="translate(190.048438 1039.878438)scale(0.1 -0.1)">
       <use xlink:href="#DejaVuSans-30"/>
       <use x="63.623047" xlink:href="#DejaVuSans-2e"/>
       <use x="95.410156" xlink:href="#DejaVuSans-30"/>
      </g>
     </g>
    </g>
    <g id="xtick_2">
     <g id="line2d_2">
      <g>
       <use style="stroke:#000000;stroke-width:0.8;" x="443.52" xlink:href="#mb8a2f1b7d9" y="1025.28"/>
      </g>
     </g>
     <g id="text_2">
      <!-- 0.2 -->
      <defs>
       <path d="M 19.1875 8.296875 
L 53.609375 8.296875 
L 53.609375 0 
L 7.328125 0 
L 7.328125 8.296875 
Q 12.9375 14.109375 22.625 23.890625 
Q 32.328125 33.6875 34.8125 36.53125 
Q 39.546875 41.84375 41.421875 45.53125 
Q 43.3125 49.21875 43.3125 52.78125 
Q 43.3125 58.59375 39.234375 62.25 
Q 35.15625 65.921875 28.609375 65.921875 
Q 23.96875 65.921875 18.8125 64.3125 
Q 13.671875 62.703125 7.8125 59.421875 
L 7.8125 69.390625 
Q 13.765625 71.78125 18.9375 73 
Q 24.125 74.21875 28.421875 74.21875 
Q 39.75 74.21875 46.484375 68.546875 
Q 53.21875 62.890625 53.21875 53.421875 
Q 53.21875 48.921875 51.53125 44.890625 
Q 49.859375 40.875 45.40625 35.40625 
Q 44.1875 33.984375 37.640625 27.21875 
Q 31.109375 20.453125 19.1875 8.296875 
z
" id="DejaVuSans-32"/>
      </defs>
      <g transform="translate(435.568438 1039.878438)scale(0.1 -0.1)">
       <use xlink:href="#DejaVuSans-30"/>
       <use x="63.623047" xlink:href="#DejaVuSans-2e"/>
       <use x="95.410156" xlink:href="#DejaVuSans-32"/>
      </g>
     </g>
    </g>
    <g id="xtick_3">
     <g id="line2d_3">
      <g>
       <use style="stroke:#000000;stroke-width:0.8;" x="689.04" xlink:href="#mb8a2f1b7d9" y="1025.28"/>
      </g>
     </g>
     <g id="text_3">
      <!-- 0.4 -->
      <defs>
       <path d="M 37.796875 64.3125 
L 12.890625 25.390625 
L 37.796875 25.390625 
z
M 35.203125 72.90625 
L 47.609375 72.90625 
L 47.609375 25.390625 
L 58.015625 25.390625 
L 58.015625 17.1875 
L 47.609375 17.1875 
L 47.609375 0 
L 37.796875 0 
L 37.796875 17.1875 
L 4.890625 17.1875 
L 4.890625 26.703125 
z
" id="DejaVuSans-34"/>
      </defs>
      <g transform="translate(681.088438 1039.878438)scale(0.1 -0.1)">
       <use xlink:href="#DejaVuSans-30"/>
       <use x="63.623047" xlink:href="#DejaVuSans-2e"/>
       <use x="95.410156" xlink:href="#DejaVuSans-34"/>
      </g>
     </g>
    </g>
    <g id="xtick_4">
     <g id="line2d_4">
      <g>
       <use style="stroke:#000000;stroke-width:0.8;" x="934.56" xlink:href="#mb8a2f1b7d9" y="1025.28"/>
      </g>
     </g>
     <g id="text_4">
      <!-- 0.6 -->
      <defs>
       <path d="M 33.015625 40.375 
Q 26.375 40.375 22.484375 35.828125 
Q 18.609375 31.296875 18.609375 23.390625 
Q 18.609375 15.53125 22.484375 10.953125 
Q 26.375 6.390625 33.015625 6.390625 
Q 39.65625 6.390625 43.53125 10.953125 
Q 47.40625 15.53125 47.40625 23.390625 
Q 47.40625 31.296875 43.53125 35.828125 
Q 39.65625 40.375 33.015625 40.375 
z
M 52.59375 71.296875 
L 52.59375 62.3125 
Q 48.875 64.0625 45.09375 64.984375 
Q 41.3125 65.921875 37.59375 65.921875 
Q 27.828125 65.921875 22.671875 59.328125 
Q 17.53125 52.734375 16.796875 39.40625 
Q 19.671875 43.65625 24.015625 45.921875 
Q 28.375 48.1875 33.59375 48.1875 
Q 44.578125 48.1875 50.953125 41.515625 
Q 57.328125 34.859375 57.328125 23.390625 
Q 57.328125 12.15625 50.6875 5.359375 
Q 44.046875 -1.421875 33.015625 -1.421875 
Q 20.359375 -1.421875 13.671875 8.265625 
Q 6.984375 17.96875 6.984375 36.375 
Q 6.984375 53.65625 15.1875 63.9375 
Q 23.390625 74.21875 37.203125 74.21875 
Q 40.921875 74.21875 44.703125 73.484375 
Q 48.484375 72.75 52.59375 71.296875 
z
" id="DejaVuSans-36"/>
      </defs>
      <g transform="translate(926.608438 1039.878438)scale(0.1 -0.1)">
       <use xlink:href="#DejaVuSans-30"/>
       <use x="63.623047" xlink:href="#DejaVuSans-2e"/>
       <use x="95.410156" xlink:href="#DejaVuSans-36"/>
      </g>
     </g>
    </g>
    <g id="xtick_5">
     <g id="line2d_5">
      <g>
       <use style="stroke:#000000;stroke-width:0.8;" x="1180.08" xlink:href="#mb8a2f1b7d9" y="1025.28"/>
      </g>
     </g>
     <g id="text_5">
      <!-- 0.8 -->
      <defs>
       <path d="M 31.78125 34.625 
Q 24.75 34.625 20.71875 30.859375 
Q 16.703125 27.09375 16.703125 20.515625 
Q 16.703125 13.921875 20.71875 10.15625 
Q 24.75 6.390625 31.78125 6.390625 
Q 38.8125 6.390625 42.859375 10.171875 
Q 46.921875 13.96875 46.921875 20.515625 
Q 46.921875 27.09375 42.890625 30.859375 
Q 38.875 34.625 31.78125 34.625 
z
M 21.921875 38.8125 
Q 15.578125 40.375 12.03125 44.71875 
Q 8.5 49.078125 8.5 55.328125 
Q 8.5 64.0625 14.71875 69.140625 
Q 20.953125 74.21875 31.78125 74.21875 
Q 42.671875 74.21875 48.875 69.140625 
Q 55.078125 64.0625 55.078125 55.328125 
Q 55.078125 49.078125 51.53125 44.71875 
Q 48 40.375 41.703125 38.8125 
Q 48.828125 37.15625 52.796875 32.3125 
Q 56.78125 27.484375 56.78125 20.515625 
Q 56.78125 9.90625 50.3125 4.234375 
Q 43.84375 -1.421875 31.78125 -1.421875 
Q 19.734375 -1.421875 13.25 4.234375 
Q 6.78125 9.90625 6.78125 20.515625 
Q 6.78125 27.484375 10.78125 32.3125 
Q 14.796875 37.15625 21.921875 38.8125 
z
M 18.3125 54.390625 
Q 18.3125 48.734375 21.84375 45.5625 
Q 25.390625 42.390625 31.78125 42.390625 
Q 38.140625 42.390625 41.71875 45.5625 
Q 45.3125 48.734375 45.3125 54.390625 
Q 45.3125 60.0625 41.71875 63.234375 
Q 38.140625 66.40625 31.78125 66.40625 
Q 25.390625 66.40625 21.84375 63.234375 
Q 18.3125 60.0625 18.3125 54.390625 
z
" id="DejaVuSans-38"/>
      </defs>
      <g transform="translate(1172.128438 1039.878438)scale(0.1 -0.1)">
       <use xlink:href="#DejaVuSans-30"/>
       <use x="63.623047" xlink:href="#DejaVuSans-2e"/>
       <use x="95.410156" xlink:href="#DejaVuSans-38"/>
      </g>
     </g>
    </g>
    <g id="xtick_6">
     <g id="line2d_6">
      <g>
       <use style="stroke:#000000;stroke-width:0.8;" x="1425.6" xlink:href="#mb8a2f1b7d9" y="1025.28"/>
      </g>
     </g>
     <g id="text_6">
      <!-- 1.0 -->
      <defs>
       <path d="M 12.40625 8.296875 
L 28.515625 8.296875 
L 28.515625 63.921875 
L 10.984375 60.40625 
L 10.984375 69.390625 
L 28.421875 72.90625 
L 38.28125 72.90625 
L 38.28125 8.296875 
L 54.390625 8.296875 
L 54.390625 0 
L 12.40625 0 
z
" id="DejaVuSans-31"/>
      </defs>
      <g transform="translate(1417.648438 1039.878438)scale(0.1 -0.1)">
       <use xlink:href="#DejaVuSans-31"/>
       <use x="63.623047" xlink:href="#DejaVuSans-2e"/>
       <use x="95.410156" xlink:href="#DejaVuSans-30"/>
      </g>
     </g>
    </g>
   </g>
   <g id="matplotlib.axis_2">
    <g id="ytick_1">
     <g id="line2d_7">
      <defs>
       <path d="M 0 0 
L -3.5 0 
" id="m63fbb95caf" style="stroke:#000000;stroke-width:0.8;"/>
      </defs>
      <g>
       <use style="stroke:#000000;stroke-width:0.8;" x="198" xlink:href="#m63fbb95caf" y="1025.28"/>
      </g>
     </g>
     <g id="text_7">
      <!-- 0.0 -->
      <g transform="translate(175.096875 1029.079219)scale(0.1 -0.1)">
       <use xlink:href="#DejaVuSans-30"/>
       <use x="63.623047" xlink:href="#DejaVuSans-2e"/>
       <use x="95.410156" xlink:href="#DejaVuSans-30"/>
      </g>
     </g>
    </g>
    <g id="ytick_2">
     <g id="line2d_8">
      <g>
       <use style="stroke:#000000;stroke-width:0.8;" x="198" xlink:href="#m63fbb95caf" y="847.872"/>
      </g>
     </g>
     <g id="text_8">
      <!-- 0.2 -->
      <g transform="translate(175.096875 851.671219)scale(0.1 -0.1)">
       <use xlink:href="#DejaVuSans-30"/>
       <use x="63.623047" xlink:href="#DejaVuSans-2e"/>
       <use x="95.410156" xlink:href="#DejaVuSans-32"/>
      </g>
     </g>
    </g>
    <g id="ytick_3">
     <g id="line2d_9">
      <g>
       <use style="stroke:#000000;stroke-width:0.8;" x="198" xlink:href="#m63fbb95caf" y="670.464"/>
      </g>
     </g>
     <g id="text_9">
      <!-- 0.4 -->
      <g transform="translate(175.096875 674.263219)scale(0.1 -0.1)">
       <use xlink:href="#DejaVuSans-30"/>
       <use x="63.623047" xlink:href="#DejaVuSans-2e"/>
       <use x="95.410156" xlink:href="#DejaVuSans-34"/>
      </g>
     </g>
    </g>
    <g id="ytick_4">
     <g id="line2d_10">
      <g>
       <use style="stroke:#000000;stroke-width:0.8;" x="198" xlink:href="#m63fbb95caf" y="493.056"/>
      </g>
     </g>
     <g id="text_10">
      <!-- 0.6 -->
      <g transform="translate(175.096875 496.855219)scale(0.1 -0.1)">
       <use xlink:href="#DejaVuSans-30"/>
       <use x="63.623047" xlink:href="#DejaVuSans-2e"/>
       <use x="95.410156" xlink:href="#DejaVuSans-36"/>
      </g>
     </g>
    </g>
    <g id="ytick_5">
     <g id="line2d_11">
      <g>
       <use style="stroke:#000000;stroke-width:0.8;" x="198" xlink:href="#m63fbb95caf" y="315.648"/>
      </g>
     </g>
     <g id="text_11">
      <!-- 0.8 -->
      <g transform="translate(175.096875 319.447219)scale(0.1 -0.1)">
       <use xlink:href="#DejaVuSans-30"/>
       <use x="63.623047" xlink:href="#DejaVuSans-2e"/>
       <use x="95.410156" xlink:href="#DejaVuSans-38"/>
      </g>
     </g>
    </g>
    <g id="ytick_6">
     <g id="line2d_12">
      <g>
       <use style="stroke:#000000;stroke-width:0.8;" x="198" xlink:href="#m63fbb95caf" y="138.24"/>
      </g>
     </g>
     <g id="text_12">
      <!-- 1.0 -->
      <g transform="translate(175.096875 142.039219)scale(0.1 -0.1)">
       <use xlink:href="#DejaVuSans-31"/>
       <use x="63.623047" xlink:href="#DejaVuSans-2e"/>
       <use x="95.410156" xlink:href="#DejaVuSans-30"/>
      </g>
     </g>
    </g>
   </g>
   <g id="patch_3">
    <path d="M 198 1025.28 
L 198 138.24 
" style="fill:none;stroke:#000000;stroke-linecap:square;stroke-linejoin:miter;stroke-width:0.8;"/>
   </g>
   <g id="patch_4">
    <path d="M 1425.6 1025.28 
L 1425.6 138.24 
" style="fill:none;stroke:#000000;stroke-linecap:square;stroke-linejoin:miter;stroke-width:0.8;"/>
   </g>
   <g id="patch_5">
    <path d="M 198 1025.28 
L 1425.6 1025.28 
" style="fill:none;stroke:#000000;stroke-linecap:square;stroke-linejoin:miter;stroke-width:0.8;"/>
   </g>
   <g id="patch_6">
    <path d="M 198 138.24 
L 1425.6 138.24 
" style="fill:none;stroke:#000000;stroke-linecap:square;stroke-linejoin:miter;stroke-width:0.8;"/>
   </g>
   <g id="legend_1">
    <g id="patch_7">
     <path d="M 1367.5125 909.5025 
L 1418.6 909.5025 
Q 1420.6 909.5025 1420.6 907.5025 
L 1420.6 145.24 
Q 1420.6 143.24 1418.6 143.24 
L 1367.5125 143.24 
Q 1365.5125 143.24 1365.5125 145.24 
L 1365.5125 907.5025 
Q 1365.5125 909.5025 1367.5125 909.5025 
z
" style="fill:#ffffff;opacity:0.8;stroke:#cccccc;stroke-linejoin:miter;"/>
    </g>
    <g id="patch_8">
     <path d="M 1369.5125 154.838438 
L 1389.5125 154.838438 
L 1389.5125 147.838438 
L 1369.5125 147.838438 
z
" style="fill:#00ff00;stroke:#00ff00;stroke-linejoin:miter;stroke-width:5;"/>
    </g>
    <g id="text_13">
     <!-- 1 -->
     <g transform="translate(1397.5125 154.838438)scale(0.1 -0.1)">
      <use xlink:href="#DejaVuSans-31"/>
     </g>
    </g>
    <g id="patch_9">
     <path d="M 1369.5125 169.516562 
L 1389.5125 169.516562 
L 1389.5125 162.516562 
L 1369.5125 162.516562 
z
" style="fill:#0af400;stroke:#0af400;stroke-linejoin:miter;stroke-width:5;"/>
    </g>
    <g id="text_14">
     <!-- 2 -->
     <g transform="translate(1397.5125 169.516562)scale(0.1 -0.1)">
      <use xlink:href="#DejaVuSans-32"/>
     </g>
    </g>
    <g id="patch_10">
     <path d="M 1369.5125 184.194687 
L 1389.5125 184.194687 
L 1389.5125 177.194687 
L 1369.5125 177.194687 
z
" style="fill:#14ea00;stroke:#14ea00;stroke-linejoin:miter;stroke-width:5;"/>
    </g>
    <g id="text_15">
     <!-- 3 -->
     <defs>
      <path d="M 40.578125 39.3125 
Q 47.65625 37.796875 51.625 33 
Q 55.609375 28.21875 55.609375 21.1875 
Q 55.609375 10.40625 48.1875 4.484375 
Q 40.765625 -1.421875 27.09375 -1.421875 
Q 22.515625 -1.421875 17.65625 -0.515625 
Q 12.796875 0.390625 7.625 2.203125 
L 7.625 11.71875 
Q 11.71875 9.328125 16.59375 8.109375 
Q 21.484375 6.890625 26.8125 6.890625 
Q 36.078125 6.890625 40.9375 10.546875 
Q 45.796875 14.203125 45.796875 21.1875 
Q 45.796875 27.640625 41.28125 31.265625 
Q 36.765625 34.90625 28.71875 34.90625 
L 20.21875 34.90625 
L 20.21875 43.015625 
L 29.109375 43.015625 
Q 36.375 43.015625 40.234375 45.921875 
Q 44.09375 48.828125 44.09375 54.296875 
Q 44.09375 59.90625 40.109375 62.90625 
Q 36.140625 65.921875 28.71875 65.921875 
Q 24.65625 65.921875 20.015625 65.03125 
Q 15.375 64.15625 9.8125 62.3125 
L 9.8125 71.09375 
Q 15.4375 72.65625 20.34375 73.4375 
Q 25.25 74.21875 29.59375 74.21875 
Q 40.828125 74.21875 47.359375 69.109375 
Q 53.90625 64.015625 53.90625 55.328125 
Q 53.90625 49.265625 50.4375 45.09375 
Q 46.96875 40.921875 40.578125 39.3125 
z
" id="DejaVuSans-33"/>
     </defs>
     <g transform="translate(1397.5125 184.194687)scale(0.1 -0.1)">
      <use xlink:href="#DejaVuSans-33"/>
     </g>
    </g>
    <g id="patch_11">
     <path d="M 1369.5125 198.872813 
L 1389.5125 198.872813 
L 1389.5125 191.872813 
L 1369.5125 191.872813 
z
" style="fill:#1fdf00;stroke:#1fdf00;stroke-linejoin:miter;stroke-width:5;"/>
    </g>
    <g id="text_16">
     <!-- 4 -->
     <g transform="translate(1397.5125 198.872813)scale(0.1 -0.1)">
      <use xlink:href="#DejaVuSans-34"/>
     </g>
    </g>
    <g id="patch_12">
     <path d="M 1369.5125 213.550938 
L 1389.5125 213.550938 
L 1389.5125 206.550938 
L 1369.5125 206.550938 
z
" style="fill:#29d500;stroke:#29d500;stroke-linejoin:miter;stroke-width:5;"/>
    </g>
    <g id="text_17">
     <!-- 5 -->
     <defs>
      <path d="M 10.796875 72.90625 
L 49.515625 72.90625 
L 49.515625 64.59375 
L 19.828125 64.59375 
L 19.828125 46.734375 
Q 21.96875 47.46875 24.109375 47.828125 
Q 26.265625 48.1875 28.421875 48.1875 
Q 40.625 48.1875 47.75 41.5 
Q 54.890625 34.8125 54.890625 23.390625 
Q 54.890625 11.625 47.5625 5.09375 
Q 40.234375 -1.421875 26.90625 -1.421875 
Q 22.3125 -1.421875 17.546875 -0.640625 
Q 12.796875 0.140625 7.71875 1.703125 
L 7.71875 11.625 
Q 12.109375 9.234375 16.796875 8.0625 
Q 21.484375 6.890625 26.703125 6.890625 
Q 35.15625 6.890625 40.078125 11.328125 
Q 45.015625 15.765625 45.015625 23.390625 
Q 45.015625 31 40.078125 35.4375 
Q 35.15625 39.890625 26.703125 39.890625 
Q 22.75 39.890625 18.8125 39.015625 
Q 14.890625 38.140625 10.796875 36.28125 
z
" id="DejaVuSans-35"/>
     </defs>
     <g transform="translate(1397.5125 213.550938)scale(0.1 -0.1)">
      <use xlink:href="#DejaVuSans-35"/>
     </g>
    </g>
    <g id="patch_13">
     <path d="M 1369.5125 228.229063 
L 1389.5125 228.229063 
L 1389.5125 221.229063 
L 1369.5125 221.229063 
z
" style="fill:#34ca00;stroke:#34ca00;stroke-linejoin:miter;stroke-width:5;"/>
    </g>
    <g id="text_18">
     <!-- 6 -->
     <g transform="translate(1397.5125 228.229063)scale(0.1 -0.1)">
      <use xlink:href="#DejaVuSans-36"/>
     </g>
    </g>
    <g id="patch_14">
     <path d="M 1369.5125 242.907187 
L 1389.5125 242.907187 
L 1389.5125 235.907187 
L 1369.5125 235.907187 
z
" style="fill:#3ec000;stroke:#3ec000;stroke-linejoin:miter;stroke-width:5;"/>
    </g>
    <g id="text_19">
     <!-- 7 -->
     <defs>
      <path d="M 8.203125 72.90625 
L 55.078125 72.90625 
L 55.078125 68.703125 
L 28.609375 0 
L 18.3125 0 
L 43.21875 64.59375 
L 8.203125 64.59375 
z
" id="DejaVuSans-37"/>
     </defs>
     <g transform="translate(1397.5125 242.907187)scale(0.1 -0.1)">
      <use xlink:href="#DejaVuSans-37"/>
     </g>
    </g>
    <g id="patch_15">
     <path d="M 1369.5125 257.585312 
L 1389.5125 257.585312 
L 1389.5125 250.585312 
L 1369.5125 250.585312 
z
" style="fill:#48b600;stroke:#48b600;stroke-linejoin:miter;stroke-width:5;"/>
    </g>
    <g id="text_20">
     <!-- 8 -->
     <g transform="translate(1397.5125 257.585312)scale(0.1 -0.1)">
      <use xlink:href="#DejaVuSans-38"/>
     </g>
    </g>
    <g id="patch_16">
     <path d="M 1369.5125 272.263438 
L 1389.5125 272.263438 
L 1389.5125 265.263438 
L 1369.5125 265.263438 
z
" style="fill:#53ab00;stroke:#53ab00;stroke-linejoin:miter;stroke-width:5;"/>
    </g>
    <g id="text_21">
     <!-- 9 -->
     <defs>
      <path d="M 10.984375 1.515625 
L 10.984375 10.5 
Q 14.703125 8.734375 18.5 7.8125 
Q 22.3125 6.890625 25.984375 6.890625 
Q 35.75 6.890625 40.890625 13.453125 
Q 46.046875 20.015625 46.78125 33.40625 
Q 43.953125 29.203125 39.59375 26.953125 
Q 35.25 24.703125 29.984375 24.703125 
Q 19.046875 24.703125 12.671875 31.3125 
Q 6.296875 37.9375 6.296875 49.421875 
Q 6.296875 60.640625 12.9375 67.421875 
Q 19.578125 74.21875 30.609375 74.21875 
Q 43.265625 74.21875 49.921875 64.515625 
Q 56.59375 54.828125 56.59375 36.375 
Q 56.59375 19.140625 48.40625 8.859375 
Q 40.234375 -1.421875 26.421875 -1.421875 
Q 22.703125 -1.421875 18.890625 -0.6875 
Q 15.09375 0.046875 10.984375 1.515625 
z
M 30.609375 32.421875 
Q 37.25 32.421875 41.125 36.953125 
Q 45.015625 41.5 45.015625 49.421875 
Q 45.015625 57.28125 41.125 61.84375 
Q 37.25 66.40625 30.609375 66.40625 
Q 23.96875 66.40625 20.09375 61.84375 
Q 16.21875 57.28125 16.21875 49.421875 
Q 16.21875 41.5 20.09375 36.953125 
Q 23.96875 32.421875 30.609375 32.421875 
z
" id="DejaVuSans-39"/>
     </defs>
     <g transform="translate(1397.5125 272.263438)scale(0.1 -0.1)">
      <use xlink:href="#DejaVuSans-39"/>
     </g>
    </g>
    <g id="patch_17">
     <path d="M 1369.5125 286.941562 
L 1389.5125 286.941562 
L 1389.5125 279.941562 
L 1369.5125 279.941562 
z
" style="fill:#5da100;stroke:#5da100;stroke-linejoin:miter;stroke-width:5;"/>
    </g>
    <g id="text_22">
     <!-- 10 -->
     <g transform="translate(1397.5125 286.941562)scale(0.1 -0.1)">
      <use xlink:href="#DejaVuSans-31"/>
      <use x="63.623047" xlink:href="#DejaVuSans-30"/>
     </g>
    </g>
    <g id="patch_18">
     <path d="M 1369.5125 301.619687 
L 1389.5125 301.619687 
L 1389.5125 294.619687 
L 1369.5125 294.619687 
z
" style="fill:#689600;stroke:#689600;stroke-linejoin:miter;stroke-width:5;"/>
    </g>
    <g id="text_23">
     <!-- 11 -->
     <g transform="translate(1397.5125 301.619687)scale(0.1 -0.1)">
      <use xlink:href="#DejaVuSans-31"/>
      <use x="63.623047" xlink:href="#DejaVuSans-31"/>
     </g>
    </g>
    <g id="patch_19">
     <path d="M 1369.5125 316.297812 
L 1389.5125 316.297812 
L 1389.5125 309.297812 
L 1369.5125 309.297812 
z
" style="fill:#728c00;stroke:#728c00;stroke-linejoin:miter;stroke-width:5;"/>
    </g>
    <g id="text_24">
     <!-- 13 -->
     <g transform="translate(1397.5125 316.297812)scale(0.1 -0.1)">
      <use xlink:href="#DejaVuSans-31"/>
      <use x="63.623047" xlink:href="#DejaVuSans-33"/>
     </g>
    </g>
    <g id="patch_20">
     <path d="M 1369.5125 330.975937 
L 1389.5125 330.975937 
L 1389.5125 323.975937 
L 1369.5125 323.975937 
z
" style="fill:#7c8200;stroke:#7c8200;stroke-linejoin:miter;stroke-width:5;"/>
    </g>
    <g id="text_25">
     <!-- 17 -->
     <g transform="translate(1397.5125 330.975937)scale(0.1 -0.1)">
      <use xlink:href="#DejaVuSans-31"/>
      <use x="63.623047" xlink:href="#DejaVuSans-37"/>
     </g>
    </g>
    <g id="patch_21">
     <path d="M 1369.5125 345.654063 
L 1389.5125 345.654063 
L 1389.5125 338.654063 
L 1369.5125 338.654063 
z
" style="fill:#877700;stroke:#877700;stroke-linejoin:miter;stroke-width:5;"/>
    </g>
    <g id="text_26">
     <!-- 18 -->
     <g transform="translate(1397.5125 345.654063)scale(0.1 -0.1)">
      <use xlink:href="#DejaVuSans-31"/>
      <use x="63.623047" xlink:href="#DejaVuSans-38"/>
     </g>
    </g>
    <g id="patch_22">
     <path d="M 1369.5125 360.332187 
L 1389.5125 360.332187 
L 1389.5125 353.332187 
L 1369.5125 353.332187 
z
" style="fill:#916d00;stroke:#916d00;stroke-linejoin:miter;stroke-width:5;"/>
    </g>
    <g id="text_27">
     <!-- 20 -->
     <g transform="translate(1397.5125 360.332187)scale(0.1 -0.1)">
      <use xlink:href="#DejaVuSans-32"/>
      <use x="63.623047" xlink:href="#DejaVuSans-30"/>
     </g>
    </g>
    <g id="patch_23">
     <path d="M 1369.5125 375.010312 
L 1389.5125 375.010312 
L 1389.5125 368.010312 
L 1369.5125 368.010312 
z
" style="fill:#9c6200;stroke:#9c6200;stroke-linejoin:miter;stroke-width:5;"/>
    </g>
    <g id="text_28">
     <!-- 24 -->
     <g transform="translate(1397.5125 375.010312)scale(0.1 -0.1)">
      <use xlink:href="#DejaVuSans-32"/>
      <use x="63.623047" xlink:href="#DejaVuSans-34"/>
     </g>
    </g>
    <g id="patch_24">
     <path d="M 1369.5125 389.688437 
L 1389.5125 389.688437 
L 1389.5125 382.688437 
L 1369.5125 382.688437 
z
" style="fill:#a65800;stroke:#a65800;stroke-linejoin:miter;stroke-width:5;"/>
    </g>
    <g id="text_29">
     <!-- 25 -->
     <g transform="translate(1397.5125 389.688437)scale(0.1 -0.1)">
      <use xlink:href="#DejaVuSans-32"/>
      <use x="63.623047" xlink:href="#DejaVuSans-35"/>
     </g>
    </g>
    <g id="patch_25">
     <path d="M 1369.5125 404.366562 
L 1389.5125 404.366562 
L 1389.5125 397.366562 
L 1369.5125 397.366562 
z
" style="fill:#b04e00;stroke:#b04e00;stroke-linejoin:miter;stroke-width:5;"/>
    </g>
    <g id="text_30">
     <!-- 41 -->
     <g transform="translate(1397.5125 404.366562)scale(0.1 -0.1)">
      <use xlink:href="#DejaVuSans-34"/>
      <use x="63.623047" xlink:href="#DejaVuSans-31"/>
     </g>
    </g>
    <g id="patch_26">
     <path d="M 1369.5125 419.044688 
L 1389.5125 419.044688 
L 1389.5125 412.044688 
L 1369.5125 412.044688 
z
" style="fill:#bb4300;stroke:#bb4300;stroke-linejoin:miter;stroke-width:5;"/>
    </g>
    <g id="text_31">
     <!-- 56 -->
     <g transform="translate(1397.5125 419.044688)scale(0.1 -0.1)">
      <use xlink:href="#DejaVuSans-35"/>
      <use x="63.623047" xlink:href="#DejaVuSans-36"/>
     </g>
    </g>
    <g id="patch_27">
     <path d="M 1369.5125 433.722812 
L 1389.5125 433.722812 
L 1389.5125 426.722812 
L 1369.5125 426.722812 
z
" style="fill:#c53900;stroke:#c53900;stroke-linejoin:miter;stroke-width:5;"/>
    </g>
    <g id="text_32">
     <!-- 64 -->
     <g transform="translate(1397.5125 433.722812)scale(0.1 -0.1)">
      <use xlink:href="#DejaVuSans-36"/>
      <use x="63.623047" xlink:href="#DejaVuSans-34"/>
     </g>
    </g>
    <g id="patch_28">
     <path d="M 1369.5125 448.400938 
L 1389.5125 448.400938 
L 1389.5125 441.400938 
L 1369.5125 441.400938 
z
" style="fill:#d02e00;stroke:#d02e00;stroke-linejoin:miter;stroke-width:5;"/>
    </g>
    <g id="text_33">
     <!-- 71 -->
     <g transform="translate(1397.5125 448.400938)scale(0.1 -0.1)">
      <use xlink:href="#DejaVuSans-37"/>
      <use x="63.623047" xlink:href="#DejaVuSans-31"/>
     </g>
    </g>
    <g id="patch_29">
     <path d="M 1369.5125 463.079062 
L 1389.5125 463.079062 
L 1389.5125 456.079062 
L 1369.5125 456.079062 
z
" style="fill:#da2400;stroke:#da2400;stroke-linejoin:miter;stroke-width:5;"/>
    </g>
    <g id="text_34">
     <!-- 76 -->
     <g transform="translate(1397.5125 463.079062)scale(0.1 -0.1)">
      <use xlink:href="#DejaVuSans-37"/>
      <use x="63.623047" xlink:href="#DejaVuSans-36"/>
     </g>
    </g>
    <g id="patch_30">
     <path d="M 1369.5125 477.757188 
L 1389.5125 477.757188 
L 1389.5125 470.757188 
L 1369.5125 470.757188 
z
" style="fill:#e41a00;stroke:#e41a00;stroke-linejoin:miter;stroke-width:5;"/>
    </g>
    <g id="text_35">
     <!-- 99 -->
     <g transform="translate(1397.5125 477.757188)scale(0.1 -0.1)">
      <use xlink:href="#DejaVuSans-39"/>
      <use x="63.623047" xlink:href="#DejaVuSans-39"/>
     </g>
    </g>
    <g id="patch_31">
     <path d="M 1369.5125 492.435313 
L 1389.5125 492.435313 
L 1389.5125 485.435313 
L 1369.5125 485.435313 
z
" style="fill:#ef0f00;stroke:#ef0f00;stroke-linejoin:miter;stroke-width:5;"/>
    </g>
    <g id="text_36">
     <!-- 288 -->
     <g transform="translate(1397.5125 492.435313)scale(0.1 -0.1)">
      <use xlink:href="#DejaVuSans-32"/>
      <use x="63.623047" xlink:href="#DejaVuSans-38"/>
      <use x="127.246094" xlink:href="#DejaVuSans-38"/>
     </g>
    </g>
    <g id="patch_32">
     <path d="M 1369.5125 507.113438 
L 1389.5125 507.113438 
L 1389.5125 500.113438 
L 1369.5125 500.113438 
z
" style="fill:#f90500;stroke:#f90500;stroke-linejoin:miter;stroke-width:5;"/>
    </g>
    <g id="text_37">
     <!-- 289 -->
     <g transform="translate(1397.5125 507.113438)scale(0.1 -0.1)">
      <use xlink:href="#DejaVuSans-32"/>
      <use x="63.623047" xlink:href="#DejaVuSans-38"/>
      <use x="127.246094" xlink:href="#DejaVuSans-39"/>
     </g>
    </g>
    <g id="patch_33">
     <path d="M 1369.5125 521.791563 
L 1389.5125 521.791563 
L 1389.5125 514.791563 
L 1369.5125 514.791563 
z
" style="opacity:0.044725;stroke:#000000;stroke-linejoin:miter;stroke-width:5;"/>
    </g>
    <g id="text_38">
     <!-- 1 -->
     <g transform="translate(1397.5125 521.791563)scale(0.1 -0.1)">
      <use xlink:href="#DejaVuSans-31"/>
     </g>
    </g>
    <g id="patch_34">
     <path d="M 1369.5125 536.469688 
L 1389.5125 536.469688 
L 1389.5125 529.469688 
L 1369.5125 529.469688 
z
" style="opacity:0.089451;stroke:#000000;stroke-linejoin:miter;stroke-width:5;"/>
    </g>
    <g id="text_39">
     <!-- 2 -->
     <g transform="translate(1397.5125 536.469688)scale(0.1 -0.1)">
      <use xlink:href="#DejaVuSans-32"/>
     </g>
    </g>
    <g id="patch_35">
     <path d="M 1369.5125 551.147813 
L 1389.5125 551.147813 
L 1389.5125 544.147813 
L 1369.5125 544.147813 
z
" style="opacity:0.134176;stroke:#000000;stroke-linejoin:miter;stroke-width:5;"/>
    </g>
    <g id="text_40">
     <!-- 3 -->
     <g transform="translate(1397.5125 551.147813)scale(0.1 -0.1)">
      <use xlink:href="#DejaVuSans-33"/>
     </g>
    </g>
    <g id="patch_36">
     <path d="M 1369.5125 565.825938 
L 1389.5125 565.825938 
L 1389.5125 558.825938 
L 1369.5125 558.825938 
z
" style="opacity:0.178902;stroke:#000000;stroke-linejoin:miter;stroke-width:5;"/>
    </g>
    <g id="text_41">
     <!-- 4 -->
     <g transform="translate(1397.5125 565.825938)scale(0.1 -0.1)">
      <use xlink:href="#DejaVuSans-34"/>
     </g>
    </g>
    <g id="patch_37">
     <path d="M 1369.5125 580.504063 
L 1389.5125 580.504063 
L 1389.5125 573.504063 
L 1369.5125 573.504063 
z
" style="opacity:0.223627;stroke:#000000;stroke-linejoin:miter;stroke-width:5;"/>
    </g>
    <g id="text_42">
     <!-- 5 -->
     <g transform="translate(1397.5125 580.504063)scale(0.1 -0.1)">
      <use xlink:href="#DejaVuSans-35"/>
     </g>
    </g>
    <g id="patch_38">
     <path d="M 1369.5125 595.182188 
L 1389.5125 595.182188 
L 1389.5125 588.182188 
L 1369.5125 588.182188 
z
" style="opacity:0.268353;stroke:#000000;stroke-linejoin:miter;stroke-width:5;"/>
    </g>
    <g id="text_43">
     <!-- 6 -->
     <g transform="translate(1397.5125 595.182188)scale(0.1 -0.1)">
      <use xlink:href="#DejaVuSans-36"/>
     </g>
    </g>
    <g id="patch_39">
     <path d="M 1369.5125 609.860313 
L 1389.5125 609.860313 
L 1389.5125 602.860313 
L 1369.5125 602.860313 
z
" style="opacity:0.313078;stroke:#000000;stroke-linejoin:miter;stroke-width:5;"/>
    </g>
    <g id="text_44">
     <!-- 7 -->
     <g transform="translate(1397.5125 609.860313)scale(0.1 -0.1)">
      <use xlink:href="#DejaVuSans-37"/>
     </g>
    </g>
    <g id="patch_40">
     <path d="M 1369.5125 624.538438 
L 1389.5125 624.538438 
L 1389.5125 617.538438 
L 1369.5125 617.538438 
z
" style="opacity:0.357804;stroke:#000000;stroke-linejoin:miter;stroke-width:5;"/>
    </g>
    <g id="text_45">
     <!-- 8 -->
     <g transform="translate(1397.5125 624.538438)scale(0.1 -0.1)">
      <use xlink:href="#DejaVuSans-38"/>
     </g>
    </g>
    <g id="patch_41">
     <path d="M 1369.5125 639.216563 
L 1389.5125 639.216563 
L 1389.5125 632.216563 
L 1369.5125 632.216563 
z
" style="opacity:0.402529;stroke:#000000;stroke-linejoin:miter;stroke-width:5;"/>
    </g>
    <g id="text_46">
     <!-- 9 -->
     <g transform="translate(1397.5125 639.216563)scale(0.1 -0.1)">
      <use xlink:href="#DejaVuSans-39"/>
     </g>
    </g>
    <g id="patch_42">
     <path d="M 1369.5125 653.894688 
L 1389.5125 653.894688 
L 1389.5125 646.894688 
L 1369.5125 646.894688 
z
" style="opacity:0.447255;stroke:#000000;stroke-linejoin:miter;stroke-width:5;"/>
    </g>
    <g id="text_47">
     <!-- 10 -->
     <g transform="translate(1397.5125 653.894688)scale(0.1 -0.1)">
      <use xlink:href="#DejaVuSans-31"/>
      <use x="63.623047" xlink:href="#DejaVuSans-30"/>
     </g>
    </g>
    <g id="patch_43">
     <path d="M 1369.5125 668.572813 
L 1389.5125 668.572813 
L 1389.5125 661.572813 
L 1369.5125 661.572813 
z
" style="opacity:0.49198;stroke:#000000;stroke-linejoin:miter;stroke-width:5;"/>
    </g>
    <g id="text_48">
     <!-- 11 -->
     <g transform="translate(1397.5125 668.572813)scale(0.1 -0.1)">
      <use xlink:href="#DejaVuSans-31"/>
      <use x="63.623047" xlink:href="#DejaVuSans-31"/>
     </g>
    </g>
    <g id="patch_44">
     <path d="M 1369.5125 683.250938 
L 1389.5125 683.250938 
L 1389.5125 676.250938 
L 1369.5125 676.250938 
z
" style="opacity:0.536706;stroke:#000000;stroke-linejoin:miter;stroke-width:5;"/>
    </g>
    <g id="text_49">
     <!-- 12 -->
     <g transform="translate(1397.5125 683.250938)scale(0.1 -0.1)">
      <use xlink:href="#DejaVuSans-31"/>
      <use x="63.623047" xlink:href="#DejaVuSans-32"/>
     </g>
    </g>
    <g id="patch_45">
     <path d="M 1369.5125 697.929063 
L 1389.5125 697.929063 
L 1389.5125 690.929063 
L 1369.5125 690.929063 
z
" style="opacity:0.626157;stroke:#000000;stroke-linejoin:miter;stroke-width:5;"/>
    </g>
    <g id="text_50">
     <!-- 14 -->
     <g transform="translate(1397.5125 697.929063)scale(0.1 -0.1)">
      <use xlink:href="#DejaVuSans-31"/>
      <use x="63.623047" xlink:href="#DejaVuSans-34"/>
     </g>
    </g>
    <g id="patch_46">
     <path d="M 1369.5125 712.607188 
L 1389.5125 712.607188 
L 1389.5125 705.607188 
L 1369.5125 705.607188 
z
" style="opacity:0.715608;stroke:#000000;stroke-linejoin:miter;stroke-width:5;"/>
    </g>
    <g id="text_51">
     <!-- 16 -->
     <g transform="translate(1397.5125 712.607188)scale(0.1 -0.1)">
      <use xlink:href="#DejaVuSans-31"/>
      <use x="63.623047" xlink:href="#DejaVuSans-36"/>
     </g>
    </g>
    <g id="patch_47">
     <path d="M 1369.5125 727.285313 
L 1389.5125 727.285313 
L 1389.5125 720.285313 
L 1369.5125 720.285313 
z
" style="opacity:0.849784;stroke:#000000;stroke-linejoin:miter;stroke-width:5;"/>
    </g>
    <g id="text_52">
     <!-- 19 -->
     <g transform="translate(1397.5125 727.285313)scale(0.1 -0.1)">
      <use xlink:href="#DejaVuSans-31"/>
      <use x="63.623047" xlink:href="#DejaVuSans-39"/>
     </g>
    </g>
    <g id="patch_48">
     <path d="M 1369.5125 741.963438 
L 1389.5125 741.963438 
L 1389.5125 734.963438 
L 1369.5125 734.963438 
z
" style="opacity:0.939235;stroke:#000000;stroke-linejoin:miter;stroke-width:5;"/>
    </g>
    <g id="text_53">
     <!-- 21 -->
     <g transform="translate(1397.5125 741.963438)scale(0.1 -0.1)">
      <use xlink:href="#DejaVuSans-32"/>
      <use x="63.623047" xlink:href="#DejaVuSans-31"/>
     </g>
    </g>
    <g id="patch_49">
     <path d="M 1369.5125 756.641563 
L 1389.5125 756.641563 
L 1389.5125 749.641563 
L 1369.5125 749.641563 
z
" style="stroke:#000000;stroke-linejoin:miter;stroke-width:5;"/>
    </g>
    <g id="text_54">
     <!-- 25 -->
     <g transform="translate(1397.5125 756.641563)scale(0.1 -0.1)">
      <use xlink:href="#DejaVuSans-32"/>
      <use x="63.623047" xlink:href="#DejaVuSans-35"/>
     </g>
    </g>
    <g id="patch_50">
     <path d="M 1369.5125 771.319688 
L 1389.5125 771.319688 
L 1389.5125 764.319688 
L 1369.5125 764.319688 
z
" style="stroke:#000000;stroke-linejoin:miter;stroke-width:5;"/>
    </g>
    <g id="text_55">
     <!-- 28 -->
     <g transform="translate(1397.5125 771.319688)scale(0.1 -0.1)">
      <use xlink:href="#DejaVuSans-32"/>
      <use x="63.623047" xlink:href="#DejaVuSans-38"/>
     </g>
    </g>
    <g id="patch_51">
     <path d="M 1369.5125 785.997813 
L 1389.5125 785.997813 
L 1389.5125 778.997813 
L 1369.5125 778.997813 
z
" style="stroke:#000000;stroke-linejoin:miter;stroke-width:5;"/>
    </g>
    <g id="text_56">
     <!-- 41 -->
     <g transform="translate(1397.5125 785.997813)scale(0.1 -0.1)">
      <use xlink:href="#DejaVuSans-34"/>
      <use x="63.623047" xlink:href="#DejaVuSans-31"/>
     </g>
    </g>
    <g id="patch_52">
     <path d="M 1369.5125 800.675938 
L 1389.5125 800.675938 
L 1389.5125 793.675938 
L 1369.5125 793.675938 
z
" style="stroke:#000000;stroke-linejoin:miter;stroke-width:5;"/>
    </g>
    <g id="text_57">
     <!-- 47 -->
     <g transform="translate(1397.5125 800.675938)scale(0.1 -0.1)">
      <use xlink:href="#DejaVuSans-34"/>
      <use x="63.623047" xlink:href="#DejaVuSans-37"/>
     </g>
    </g>
    <g id="patch_53">
     <path d="M 1369.5125 815.354063 
L 1389.5125 815.354063 
L 1389.5125 808.354063 
L 1369.5125 808.354063 
z
" style="stroke:#000000;stroke-linejoin:miter;stroke-width:5;"/>
    </g>
    <g id="text_58">
     <!-- 65 -->
     <g transform="translate(1397.5125 815.354063)scale(0.1 -0.1)">
      <use xlink:href="#DejaVuSans-36"/>
      <use x="63.623047" xlink:href="#DejaVuSans-35"/>
     </g>
    </g>
    <g id="patch_54">
     <path d="M 1369.5125 830.032188 
L 1389.5125 830.032188 
L 1389.5125 823.032188 
L 1369.5125 823.032188 
z
" style="stroke:#000000;stroke-linejoin:miter;stroke-width:5;"/>
    </g>
    <g id="text_59">
     <!-- 68 -->
     <g transform="translate(1397.5125 830.032188)scale(0.1 -0.1)">
      <use xlink:href="#DejaVuSans-36"/>
      <use x="63.623047" xlink:href="#DejaVuSans-38"/>
     </g>
    </g>
    <g id="patch_55">
     <path d="M 1369.5125 844.710313 
L 1389.5125 844.710313 
L 1389.5125 837.710313 
L 1369.5125 837.710313 
z
" style="stroke:#000000;stroke-linejoin:miter;stroke-width:5;"/>
    </g>
    <g id="text_60">
     <!-- 78 -->
     <g transform="translate(1397.5125 844.710313)scale(0.1 -0.1)">
      <use xlink:href="#DejaVuSans-37"/>
      <use x="63.623047" xlink:href="#DejaVuSans-38"/>
     </g>
    </g>
    <g id="patch_56">
     <path d="M 1369.5125 859.388438 
L 1389.5125 859.388438 
L 1389.5125 852.388438 
L 1369.5125 852.388438 
z
" style="stroke:#000000;stroke-linejoin:miter;stroke-width:5;"/>
    </g>
    <g id="text_61">
     <!-- 80 -->
     <g transform="translate(1397.5125 859.388438)scale(0.1 -0.1)">
      <use xlink:href="#DejaVuSans-38"/>
      <use x="63.623047" xlink:href="#DejaVuSans-30"/>
     </g>
    </g>
    <g id="patch_57">
     <path d="M 1369.5125 874.066563 
L 1389.5125 874.066563 
L 1389.5125 867.066563 
L 1369.5125 867.066563 
z
" style="stroke:#000000;stroke-linejoin:miter;stroke-width:5;"/>
    </g>
    <g id="text_62">
     <!-- 100 -->
     <g transform="translate(1397.5125 874.066563)scale(0.1 -0.1)">
      <use xlink:href="#DejaVuSans-31"/>
      <use x="63.623047" xlink:href="#DejaVuSans-30"/>
      <use x="127.246094" xlink:href="#DejaVuSans-30"/>
     </g>
    </g>
    <g id="patch_58">
     <path d="M 1369.5125 888.744688 
L 1389.5125 888.744688 
L 1389.5125 881.744688 
L 1369.5125 881.744688 
z
" style="stroke:#000000;stroke-linejoin:miter;stroke-width:5;"/>
    </g>
    <g id="text_63">
     <!-- 305 -->
     <g transform="translate(1397.5125 888.744688)scale(0.1 -0.1)">
      <use xlink:href="#DejaVuSans-33"/>
      <use x="63.623047" xlink:href="#DejaVuSans-30"/>
      <use x="127.246094" xlink:href="#DejaVuSans-35"/>
     </g>
    </g>
    <g id="patch_59">
     <path d="M 1369.5125 903.422813 
L 1389.5125 903.422813 
L 1389.5125 896.422813 
L 1369.5125 896.422813 
z
" style="stroke:#000000;stroke-linejoin:miter;stroke-width:5;"/>
    </g>
    <g id="text_64">
     <!-- 334 -->
     <g transform="translate(1397.5125 903.422813)scale(0.1 -0.1)">
      <use xlink:href="#DejaVuSans-33"/>
      <use x="63.623047" xlink:href="#DejaVuSans-33"/>
      <use x="127.246094" xlink:href="#DejaVuSans-34"/>
     </g>
    </g>
   </g>
  </g>
 </g>
</svg>
